<svg xmlns="http://www.w3.org/2000/svg" xmlns:xlink="http://www.w3.org/1999/xlink" width="769" zoomAndPan="magnify" viewBox="0 0 576.75 672.749985" height="897" preserveAspectRatio="xMidYMid meet" version="1.0"><defs><clipPath id="a8fe472c7e"><path d="M 74 294 L 377 294 L 377 599 L 74 599 Z M 74 294 " clip-rule="nonzero"/></clipPath><clipPath id="c5a6e80873"><path d="M 251.199219 671.828125 L -0.0664062 420.5625 L 126.097656 294.398438 L 377.363281 545.664062 Z M 251.199219 671.828125 " clip-rule="nonzero"/></clipPath><clipPath id="96949cd316"><path d="M 251.199219 671.828125 L -0.0664062 420.5625 L 126.097656 294.398438 L 377.363281 545.664062 Z M 251.199219 671.828125 " clip-rule="nonzero"/></clipPath><clipPath id="ad11a5a80b"><path d="M 337 16 L 519 16 L 519 135 L 337 135 Z M 337 16 " clip-rule="nonzero"/></clipPath><clipPath id="630e02ffb4"><path d="M 332.160156 23.101562 L 516.074219 9.425781 L 524.523438 123.066406 L 340.609375 136.738281 Z M 332.160156 23.101562 " clip-rule="nonzero"/></clipPath><clipPath id="edb4a5d1fd"><path d="M 332.160156 23.101562 L 516.074219 9.425781 L 524.523438 123.066406 L 340.609375 136.738281 Z M 332.160156 23.101562 " clip-rule="nonzero"/></clipPath><clipPath id="4dbdf37a1a"><path d="M 380 53 L 482 53 L 482 99 L 380 99 Z M 380 53 " clip-rule="nonzero"/></clipPath><clipPath id="d3427808e5"><path d="M 332.160156 23.101562 L 516.074219 9.425781 L 524.523438 123.066406 L 340.609375 136.738281 Z M 332.160156 23.101562 " clip-rule="nonzero"/></clipPath><clipPath id="6eec6bea88"><path d="M 332.160156 23.101562 L 516.074219 9.425781 L 524.523438 123.066406 L 340.609375 136.738281 Z M 332.160156 23.101562 " clip-rule="nonzero"/></clipPath><clipPath id="67fb970f90"><path d="M 19 315 L 357 315 L 357 653 L 19 653 Z M 19 315 " clip-rule="nonzero"/></clipPath><clipPath id="6fb61c711d"><path d="M 242.5625 652.316406 L 19.390625 429.144531 L 133.363281 315.175781 L 356.535156 538.347656 Z M 242.5625 652.316406 " clip-rule="nonzero"/></clipPath><clipPath id="c63c0c8251"><path d="M 109 181 L 222 181 L 222 272 L 109 272 Z M 109 181 " clip-rule="nonzero"/></clipPath><clipPath id="5a1d3172c8"><path d="M 223.5625 337.316406 L 0.390625 114.144531 L 114.363281 0.175781 L 337.535156 223.347656 Z M 223.5625 337.316406 " clip-rule="nonzero"/></clipPath><clipPath id="61760595fd"><path d="M 0.507812 114.261719 L 223.679688 337.433594 L 337.652344 223.460938 L 114.476562 0.289062 Z M 0.507812 114.261719 " clip-rule="nonzero"/></clipPath><clipPath id="8bdde723fc"><path d="M 0.507812 114.261719 L 223.679688 337.433594 L 337.648438 223.460938 L 114.476562 0.289062 Z M 0.507812 114.261719 " clip-rule="nonzero"/></clipPath><clipPath id="8046dc5ab6"><path d="M 221 185 L 336 185 L 336 272 L 221 272 Z M 221 185 " clip-rule="nonzero"/></clipPath><clipPath id="c5186ccf97"><path d="M 223.5625 337.316406 L 0.390625 114.144531 L 114.363281 0.175781 L 337.535156 223.347656 Z M 223.5625 337.316406 " clip-rule="nonzero"/></clipPath><clipPath id="1be131a44d"><path d="M 0.507812 114.261719 L 223.679688 337.433594 L 337.652344 223.460938 L 114.476562 0.289062 Z M 0.507812 114.261719 " clip-rule="nonzero"/></clipPath><clipPath id="c25dfae30f"><path d="M 0.507812 114.261719 L 223.679688 337.433594 L 337.648438 223.460938 L 114.476562 0.289062 Z M 0.507812 114.261719 " clip-rule="nonzero"/></clipPath><clipPath id="675f8cbc5a"><path d="M 192.503906 243.039062 L 255.164062 305.699219 L 335.628906 225.234375 L 272.96875 162.574219 Z M 192.503906 243.039062 " clip-rule="nonzero"/></clipPath><clipPath id="c0b6b84b57"><path d="M 66 110 L 151 110 L 151 224 L 66 224 Z M 66 110 " clip-rule="nonzero"/></clipPath><clipPath id="fc1167f0ef"><path d="M 223.5625 337.316406 L 0.390625 114.144531 L 114.363281 0.175781 L 337.535156 223.347656 Z M 223.5625 337.316406 " clip-rule="nonzero"/></clipPath><clipPath id="90a7b9b319"><path d="M 0.507812 114.261719 L 223.679688 337.433594 L 337.652344 223.460938 L 114.476562 0.289062 Z M 0.507812 114.261719 " clip-rule="nonzero"/></clipPath><clipPath id="833cce89f8"><path d="M 0.507812 114.261719 L 223.679688 337.433594 L 337.648438 223.460938 L 114.476562 0.289062 Z M 0.507812 114.261719 " clip-rule="nonzero"/></clipPath><clipPath id="dd560c97fc"><path d="M 66 2 L 153 2 L 153 113 L 66 113 Z M 66 2 " clip-rule="nonzero"/></clipPath><clipPath id="ea2874d1f2"><path d="M 223.5625 337.316406 L 0.390625 114.144531 L 114.363281 0.175781 L 337.535156 223.347656 Z M 223.5625 337.316406 " clip-rule="nonzero"/></clipPath><clipPath id="632568d098"><path d="M 0.507812 114.261719 L 223.679688 337.433594 L 337.652344 223.460938 L 114.476562 0.289062 Z M 0.507812 114.261719 " clip-rule="nonzero"/></clipPath><clipPath id="a899c3e49d"><path d="M 0.507812 114.261719 L 223.679688 337.433594 L 337.648438 223.460938 L 114.476562 0.289062 Z M 0.507812 114.261719 " clip-rule="nonzero"/></clipPath><clipPath id="5a3003f808"><path d="M 207 109 L 271 109 L 271 179 L 207 179 Z M 207 109 " clip-rule="nonzero"/></clipPath><clipPath id="1794264c92"><path d="M 223.5625 337.316406 L 0.390625 114.144531 L 114.363281 0.175781 L 337.535156 223.347656 Z M 223.5625 337.316406 " clip-rule="nonzero"/></clipPath><clipPath id="50a387f083"><path d="M 0.507812 114.261719 L 223.679688 337.433594 L 337.652344 223.460938 L 114.476562 0.289062 Z M 0.507812 114.261719 " clip-rule="nonzero"/></clipPath><clipPath id="b92ff62852"><path d="M 0.507812 114.261719 L 223.679688 337.433594 L 337.648438 223.460938 L 114.476562 0.289062 Z M 0.507812 114.261719 " clip-rule="nonzero"/></clipPath><clipPath id="eb5aeed680"><path d="M 202.300781 120.644531 L 265.492188 183.835938 L 281.769531 167.558594 L 218.578125 104.367188 Z M 202.300781 120.644531 " clip-rule="nonzero"/></clipPath><clipPath id="e72100a004"><rect x="0" width="338" y="0" height="338"/></clipPath><clipPath id="7c3c6880fb"><path d="M 173 376 L 312 376 L 312 508 L 173 508 Z M 173 376 " clip-rule="nonzero"/></clipPath><clipPath id="d0e664960a"><path d="M 282.230469 507.550781 L 173.289062 408.929688 L 202.324219 376.855469 L 311.265625 475.476562 Z M 282.230469 507.550781 " clip-rule="nonzero"/></clipPath><clipPath id="73bcbf8c89"><path d="M 0.203125 0.65625 L 138.386719 0.65625 L 138.386719 131.640625 L 0.203125 131.640625 Z M 0.203125 0.65625 " clip-rule="nonzero"/></clipPath><clipPath id="b94c417f62"><path d="M 109.230469 131.550781 L 0.289062 32.929688 L 29.324219 0.855469 L 138.265625 99.476562 Z M 109.230469 131.550781 " clip-rule="nonzero"/></clipPath><clipPath id="03db308d96"><rect x="0" width="139" y="0" height="132"/></clipPath></defs><path fill="#000000" d="M 489.796875 297.152344 C 483.535156 290.722656 474.78125 287.328125 465.839844 287.816406 L 357.601562 293.847656 L 417.167969 225.964844 C 425.652344 216.292969 428.078125 203.40625 424.796875 191.886719 C 423.066406 183.992188 418.289062 176.8125 410.949219 172.222656 C 410.726562 172.0625 268.566406 89.429688 268.566406 89.429688 C 256.960938 82.679688 242.332031 84.167969 232.316406 93.109375 L 162.871094 155.089844 C 150.078125 166.507812 148.957031 186.144531 160.371094 198.949219 C 171.785156 211.75 191.40625 212.871094 204.199219 201.449219 L 256.847656 154.460938 L 300.371094 179.75 L 223.546875 267.296875 C 191.691406 272.496094 163.027344 287.1875 140.527344 308.363281 L 180.644531 348.507812 C 198.78125 332.007812 222.859375 321.933594 249.246094 321.933594 C 305.527344 321.933594 351.316406 367.753906 351.316406 424.070312 C 351.316406 450.472656 341.25 474.566406 324.761719 492.714844 L 364.878906 532.855469 C 391.601562 504.429688 408.003906 466.179688 408.003906 424.070312 C 408.003906 398.984375 402.183594 375.257812 391.832031 354.160156 L 433.730469 351.828125 L 423.539062 476.921875 C 422.144531 494.019531 434.871094 509.007812 451.957031 510.402344 C 452.8125 510.472656 453.667969 510.507812 454.515625 510.507812 C 470.515625 510.507812 484.097656 498.203125 485.421875 481.96875 L 498.5 321.359375 C 499.230469 312.40625 496.058594 303.582031 489.796875 297.152344 Z M 489.796875 297.152344 " fill-opacity="1" fill-rule="nonzero"/><path fill="#000000" d="M 432.300781 164.089844 C 460.996094 164.089844 484.257812 140.8125 484.257812 112.09375 C 484.257812 83.378906 460.996094 60.097656 432.300781 60.097656 C 403.597656 60.097656 380.335938 83.378906 380.335938 112.09375 C 380.335938 140.8125 403.597656 164.089844 432.300781 164.089844 Z M 432.300781 164.089844 " fill-opacity="1" fill-rule="nonzero"/><path fill="#000000" d="M 249.246094 526.203125 C 192.964844 526.203125 147.175781 480.386719 147.175781 424.070312 C 147.175781 402.84375 153.683594 383.117188 164.800781 366.765625 L 124.25 326.191406 C 103.121094 353.171875 90.488281 387.136719 90.488281 424.070312 C 90.488281 511.804688 161.566406 582.925781 249.246094 582.925781 C 286.160156 582.925781 320.097656 570.285156 347.0625 549.144531 L 306.511719 508.570312 C 290.171875 519.691406 270.457031 526.203125 249.246094 526.203125 Z M 249.246094 526.203125 " fill-opacity="1" fill-rule="nonzero"/><g clip-path="url(#a8fe472c7e)"><g clip-path="url(#c5a6e80873)"><g clip-path="url(#96949cd316)"><path fill="#ffffff" d="M 125.488281 545.574219 C 194.449219 615.078125 306.679688 615.574219 376.277344 546.613281 L 126.570312 294.738281 C 57.066406 363.703125 56.523438 475.976562 125.488281 545.574219 Z M 125.488281 545.574219 " fill-opacity="1" fill-rule="nonzero"/></g></g></g><g clip-path="url(#ad11a5a80b)"><g clip-path="url(#630e02ffb4)"><g clip-path="url(#edb4a5d1fd)"><path fill="#4b2e83" d="M 471.621094 29.410156 L 425.867188 16.332031 L 425.332031 16.183594 L 424.828125 16.410156 L 381.507812 36.109375 L 337.183594 56.261719 L 347.011719 59.070312 L 358.355469 62.3125 C 356.300781 67.074219 354.722656 75.886719 358.851562 90.835938 C 356.621094 91.929688 355.164062 94.292969 355.359375 96.921875 C 355.5 98.800781 356.457031 100.417969 357.855469 101.46875 C 357.710938 117.960938 346.796875 121.066406 343.195312 121.640625 C 342.0625 121.824219 341.089844 122.65625 340.894531 123.789062 C 340.078125 128.621094 353.316406 132.460938 361.136719 134.292969 C 364.59375 135.101562 368.148438 133.261719 369.429688 129.949219 C 374.441406 117.039062 369.460938 105.425781 366.554688 100.28125 C 367.464844 99.101562 367.964844 97.601562 367.84375 95.996094 C 367.640625 93.226562 365.664062 91.023438 363.113281 90.386719 C 361.917969 84.417969 359.894531 71.15625 363.703125 63.84375 L 376.292969 67.441406 C 377.820312 60.253906 389.746094 56.847656 393.90625 55.660156 C 403.035156 53.058594 415.371094 51.078125 428.644531 50.089844 C 441.851562 49.109375 454.273438 49.238281 463.625 50.457031 C 467.808594 51.003906 479.6875 52.550781 482.523438 59.117188 L 509.136719 47.019531 L 518.441406 42.789062 Z M 471.621094 29.410156 " fill-opacity="1" fill-rule="nonzero"/></g></g></g><g clip-path="url(#4dbdf37a1a)"><g clip-path="url(#d3427808e5)"><g clip-path="url(#6eec6bea88)"><path fill="#4b2e83" d="M 380.097656 69.273438 L 382.246094 98.167969 C 395.757812 87.722656 412.378906 80.992188 430.6875 79.628906 C 448.992188 78.269531 466.425781 82.46875 481.332031 90.800781 L 479.179688 61.847656 C 478.03125 46.488281 378.949219 53.917969 380.097656 69.273438 Z M 380.097656 69.273438 " fill-opacity="1" fill-rule="nonzero"/></g></g></g><g clip-path="url(#67fb970f90)"><g clip-path="url(#6fb61c711d)"><g transform="matrix(1, 0, 0, 1, 19, 315)"><g clip-path="url(#e72100a004)"><g clip-path="url(#c63c0c8251)"><g clip-path="url(#5a1d3172c8)"><g clip-path="url(#61760595fd)"><g clip-path="url(#8bdde723fc)"><path fill="#ed8129" d="M 221.570312 271.898438 C 181.863281 271.414062 142.3125 256.066406 112.085938 225.84375 C 111.066406 224.820312 110.0625 223.785156 109.074219 222.746094 L 149.910156 181.910156 C 150.878906 182.96875 151.871094 184.011719 152.894531 185.035156 C 171.871094 204.015625 196.65625 213.746094 221.585938 214.234375 C 221.585938 222.269531 221.582031 230.300781 221.582031 238.335938 C 221.578125 249.519531 221.574219 260.710938 221.570312 271.898438 " fill-opacity="1" fill-rule="nonzero"/></g></g></g></g><g clip-path="url(#8046dc5ab6)"><g clip-path="url(#c5186ccf97)"><g clip-path="url(#1be131a44d)"><g clip-path="url(#c25dfae30f)"><g clip-path="url(#675f8cbc5a)"><path fill="#ef1606" d="M 294.289062 185 L 335.074219 225.785156 C 326.941406 233.9375 315.824219 243.3125 301.300781 251.511719 C 269.265625 269.589844 238.355469 271.945312 221.570312 271.898438 C 221.578125 252.675781 221.582031 233.453125 221.585938 214.234375 C 232.304688 214.332031 252.242188 212.953125 272.867188 201.316406 C 282.066406 196.121094 289.121094 190.175781 294.289062 185 " fill-opacity="1" fill-rule="nonzero"/></g></g></g></g></g><g clip-path="url(#c0b6b84b57)"><g clip-path="url(#fc1167f0ef)"><g clip-path="url(#90a7b9b319)"><g clip-path="url(#833cce89f8)"><path fill="#fcec27" d="M 109.351562 223.035156 C 79.542969 191.730469 65.113281 151.074219 66.046875 110.699219 C 73.75 110.757812 81.449219 110.820312 89.148438 110.875 C 100.675781 110.96875 112.203125 111.054688 123.734375 111.144531 C 122.914062 136.726562 131.832031 162.558594 150.492188 182.539062 L 109.351562 223.035156 " fill-opacity="1" fill-rule="nonzero"/></g></g></g></g><g clip-path="url(#dd560c97fc)"><g clip-path="url(#ea2874d1f2)"><g clip-path="url(#632568d098)"><g clip-path="url(#a899c3e49d)"><path fill="#5bd65b" d="M 66.035156 111.902344 C 66.65625 72.347656 82.019531 32.972656 112.140625 2.851562 L 152.929688 43.636719 C 133.941406 62.628906 124.195312 87.414062 123.695312 112.347656 L 66.035156 111.902344 " fill-opacity="1" fill-rule="nonzero"/></g></g></g></g><g clip-path="url(#5a3003f808)"><g clip-path="url(#1794264c92)"><g clip-path="url(#50a387f083)"><g clip-path="url(#b92ff62852)"><g clip-path="url(#eb5aeed680)"><path fill="#020202" d="M 270.027344 178.214844 L 221.421875 131.984375 C 220.539062 132.171875 219.628906 132.269531 218.6875 132.238281 C 212.429688 132.027344 207.523438 126.789062 207.734375 120.527344 C 207.941406 114.265625 213.1875 109.359375 219.445312 109.5625 C 225.707031 109.769531 230.613281 115.011719 230.402344 121.277344 C 230.367188 122.394531 230.160156 123.472656 229.824219 124.484375 L 270.027344 178.214844 " fill-opacity="1" fill-rule="nonzero"/></g></g></g></g></g></g></g></g></g><g clip-path="url(#7c3c6880fb)"><g clip-path="url(#d0e664960a)"><g transform="matrix(1, 0, 0, 1, 173, 376)"><g clip-path="url(#03db308d96)"><g clip-path="url(#73bcbf8c89)"><g clip-path="url(#b94c417f62)"><path fill="#ffffff" d="M 109.230469 131.550781 L 0.230469 32.878906 L 29.265625 0.804688 L 138.265625 99.476562 Z M 109.230469 131.550781 " fill-opacity="1" fill-rule="nonzero"/></g></g></g></g></g></g></svg>